<svg t="1730703752921" class="icon" viewBox="0 0 1024 1024" version="1.1" xmlns="http://www.w3.org/2000/svg" p-id="18513" width="200" height="200"><path d="M469.333333 42.666667v42.666666H298.666667a128 128 0 0 0-128 128v128a213.333333 213.333333 0 0 0 213.333333 213.333334h256a213.333333 213.333333 0 0 0 213.333333-213.333334V213.333333a128 128 0 0 0-128-128h-170.666666V42.666667h-85.333334zM256 213.333333a42.666667 42.666667 0 0 1 42.666667-42.666666h426.666666a42.666667 42.666667 0 0 1 42.666667 42.666666v128a128 128 0 0 1-128 128H384a128 128 0 0 1-128-128V213.333333z m149.333333 170.666667a64 64 0 1 0 0-128 64 64 0 0 0 0 128z m213.333334 0a64 64 0 1 0 0-128 64 64 0 0 0 0 128zM256 938.666667a256 256 0 0 1 512 0h85.333333a341.333333 341.333333 0 1 0-682.666666 0h85.333333z" fill="#d4237a" p-id="18514"></path></svg>